<svg width="400" height="400" viewBox="0 0 400 400" fill="none" xmlns="http://www.w3.org/2000/svg">
<path d="M344.054 179H323.109C322.824 180.143 322.539 181.286 322.254 182.429C321.969 183.286 321.541 184.286 320.971 185.429H332.94L331.658 189.714H321.399C320.544 192.286 319.404 195.143 317.979 198.286H311.567C310.427 201.143 308.86 204 306.865 206.857H307.72C306.58 208.286 305.583 209.714 304.728 211.143C303.873 212.571 302.876 214 301.736 215.429H347.902L342.345 221.857H304.301C303.161 223.286 301.736 224.714 300.026 226.143C298.316 227.571 296.749 229 295.324 230.429H300.881C299.741 231.571 298.316 232.714 296.606 233.857C295.181 234.714 293.756 235.714 292.332 236.857H306.438L304.728 238.143L308.575 245.429H298.316L303.018 254H304.301L305.583 256.143H305.155L309.43 264.714H313.705L316.269 269H283.355L286.775 275.429H316.697L319.262 279.714H309.858L313.277 286.143H355.596L360.298 294.714H332.085L335.505 301.143H322.254L329.093 314H332.085L334.65 318.286H333.368L334.65 320.429H314.56L319.262 329L320.117 331.143H306.865L309.003 335.857C309.857 337 310.285 338.286 310.285 339.714H319.262V340.571C319.262 343.714 317.979 346.286 315.414 348.286H326.956C325.531 349.429 323.679 350 321.399 350H233.769C232.06 350 230.492 349.857 229.067 349.571C227.927 349 226.645 348.571 225.22 348.286H213.679C211.399 347.143 209.404 345.714 207.694 344C206.269 342.286 205.13 340.857 204.275 339.714H195.725L194.87 338.429L191.878 331.143H205.557L204.275 329H163.666V331.143H141.865V339.714H176.49C175.92 343.714 174.067 346.571 170.933 348.286H167.94C165.946 349.429 163.808 350 161.528 350H77.7461C75.1813 350 73.1865 349.429 71.7617 348.286H75.1813C72.0466 346.571 70.1943 343.714 69.6243 339.714H35.4275C35.4275 339.429 35.4275 339.286 35.4275 339.286C35.1425 339 35 338.714 35 338.429V331.143H56.8005V329H99.5466V320.429H53.8083V318.286H80.7383V314H71.7617V307.571H86.7228V301.143H62.3575V294.714H95.272V286.143H76.4637V279.714H76.0363V277.571H73.4715V275.429H61.93V269H76.4637V264.714H72.6166V256.143H73.044V254H71.7617V245.429H82.0207V236.857H67.487V230.429H61.93V221.857H99.5466V215.429H53.3808V206.857H52.5259V198.286H58.9378V189.714H68.7694V185.429H56.8005V179H77.7461V174.714H108.523V170.429H66.2047V168.286H68.342V166.143H72.1891V164H72.6166V159.714H71.7617V153.286H73.4715V144.714H71.3342V140.429H73.4715V134H71.7617V131.857H73.044V127.571H72.6166V125.429H70.9067V123.286H74.7539V116.857H78.1736V110.429H58.0829V101.857H62.785V93.2857H60.2202V86.8572H71.7617V80.4286H76.0363V74H68.342V69.7143H71.3342V67.5714H72.1891V61.1429H73.044C73.044 58 74.3264 55.1429 76.8912 52.5714H99.9741C101.684 50.8571 104.106 50 107.241 50H233.769C246.023 50 257.422 50.8571 267.966 52.5714H245.311C256.71 54.2857 267.539 57.1429 277.798 61.1429H276.943C281.788 62.8571 286.49 65 291.049 67.5714H290.194L294.041 69.7143H290.622C292.047 70.2857 293.187 71 294.041 71.8571C295.181 72.7143 296.321 73.4286 297.461 74H305.155C306.58 75.1429 308.005 76.2857 309.43 77.4286C310.855 78.2857 312.137 79.2857 313.277 80.4286H309.003C310.427 81.5714 311.567 82.7143 312.422 83.8571C313.562 84.7143 314.702 85.7143 315.842 86.8572H304.301C305.44 88 306.438 89.1429 307.293 90.2857C308.148 91.1429 309.003 92.1429 309.858 93.2857H311.995C314.275 96.1429 316.269 99 317.979 101.857H313.705C314.56 103 315.272 104.429 315.842 106.143C316.697 107.571 317.552 109 318.407 110.429H338.497L341.062 116.857H337.642C337.927 118 338.212 119.143 338.497 120.286C339.067 121.143 339.495 122.143 339.78 123.286H335.505L336.36 125.429H338.07C338.355 126 338.497 126.714 338.497 127.571L339.78 131.857H341.062C341.062 132.714 341.205 133.429 341.49 134H341.917C342.202 135.143 342.345 136.286 342.345 137.429C342.63 138.286 342.772 139.286 342.772 140.429H337.215C337.215 141 337.215 141.714 337.215 142.571C337.215 143.429 337.358 144.143 337.642 144.714H340.207C340.207 146.143 340.207 147.571 340.207 149C340.492 150.429 340.635 151.857 340.635 153.286V157.571H343.199V159.714H340.635V164H336.36C336.36 164.286 336.218 164.571 335.933 164.857C335.933 165.143 335.933 165.571 335.933 166.143H340.207C340.207 166.429 340.065 166.714 339.78 167C339.78 167.286 339.78 167.714 339.78 168.286H359.87C359.585 168.857 359.443 169.571 359.443 170.429H365L364.573 174.714H344.909C344.339 176.429 344.054 177.857 344.054 179ZM173.07 170.429H215.389V174.714H184.611V175.143H215.816C217.811 175.143 219.378 175 220.518 174.714H240.181C243.316 173.857 246.166 172.429 248.731 170.429H242.746L244.883 168.286H224.793C225.648 167.429 226.218 166.714 226.503 166.143H222.228L223.51 164H227.785L229.067 159.714H231.205C231.49 159.143 231.632 158.429 231.632 157.571H229.067L229.495 153.286C229.495 150.429 229.067 147.571 228.212 144.714H225.648C225.363 144.143 225.078 143.429 224.793 142.571C224.793 141.714 224.508 141 223.938 140.429H229.922C228.782 138.143 227.215 136 225.22 134H224.365C223.51 133.143 222.513 132.429 221.373 131.857H220.091C217.241 130.429 214.249 129.714 211.114 129.714H179.909V131.857H178.627V134H180.337V140.429H178.199V144.714H180.337V153.286H178.627V159.714H179.482V164H179.054V166.143H175.207V168.286H173.07V170.429ZM206.839 269L205.13 264.714H200.427L197.008 256.571H179.482V264.714H183.329V269H206.839ZM168.795 269V275.429H176.917L174.352 269H168.795ZM207.694 277.571L206.839 275.429H180.337V277.571H182.902V279.714H183.329V286.143H202.137V294.714H169.223V301.143H193.588V307.571H178.627V314H187.604V318.286H160.674V320.429H220.946L219.663 318.286H220.946L218.808 314H215.389L212.824 307.571L209.832 301.143H223.51L220.518 294.714H248.303L244.456 286.143H202.137L199.573 279.714H208.977L207.694 277.571Z" fill="url(#paint0_linear_435_4)"/>
<defs>
<linearGradient id="paint0_linear_435_4" x1="79" y1="50" x2="325" y2="350" gradientUnits="userSpaceOnUse">
<stop stop-color="#0088FF"/>
<stop offset="1" stop-color="#00417B"/>
</linearGradient>
</defs>
</svg>
